<svg version="1.1" xmlns="http://www.w3.org/2000/svg" xmlns:xlink="http://www.w3.org/1999/xlink" width="800" height="800"><defs/><g transform="scale(2,2)"><g id="background-853d9d88"><rect fill="white" stroke="none" x="0" y="0" width="400" height="400" class="dcg-svg-background"/></g><g id="background-images-853d9d88"/><g id="graphpaper-853d9d88"><g id="grid-853d9d88"><g><path fill="none" stroke="rgb(0,0,0)" class="dcg-svg-minor-gridline" paint-order="fill stroke markers" d=" M 19.5 0 L 19.5 400" stroke-opacity="0.2" stroke-miterlimit="10" stroke-dasharray=""/><path fill="none" stroke="rgb(0,0,0)" class="dcg-svg-minor-gridline" paint-order="fill stroke markers" d=" M 47.5 0 L 47.5 400" stroke-opacity="0.2" stroke-miterlimit="10" stroke-dasharray=""/><path fill="none" stroke="rgb(0,0,0)" class="dcg-svg-minor-gridline" paint-order="fill stroke markers" d=" M 74.5 0 L 74.5 400" stroke-opacity="0.2" stroke-miterlimit="10" stroke-dasharray=""/><path fill="none" stroke="rgb(0,0,0)" class="dcg-svg-minor-gridline" paint-order="fill stroke markers" d=" M 102.5 0 L 102.5 400" stroke-opacity="0.2" stroke-miterlimit="10" stroke-dasharray=""/><path fill="none" stroke="rgb(0,0,0)" class="dcg-svg-minor-gridline" paint-order="fill stroke markers" d=" M 130.5 0 L 130.5 400" stroke-opacity="0.2" stroke-miterlimit="10" stroke-dasharray=""/><path fill="none" stroke="rgb(0,0,0)" class="dcg-svg-minor-gridline" paint-order="fill stroke markers" d=" M 186.5 0 L 186.5 400" stroke-opacity="0.2" stroke-miterlimit="10" stroke-dasharray=""/><path fill="none" stroke="rgb(0,0,0)" class="dcg-svg-minor-gridline" paint-order="fill stroke markers" d=" M 213.5 0 L 213.5 400" stroke-opacity="0.2" stroke-miterlimit="10" stroke-dasharray=""/><path fill="none" stroke="rgb(0,0,0)" class="dcg-svg-minor-gridline" paint-order="fill stroke markers" d=" M 241.5 0 L 241.5 400" stroke-opacity="0.2" stroke-miterlimit="10" stroke-dasharray=""/><path fill="none" stroke="rgb(0,0,0)" class="dcg-svg-minor-gridline" paint-order="fill stroke markers" d=" M 269.5 0 L 269.5 400" stroke-opacity="0.2" stroke-miterlimit="10" stroke-dasharray=""/><path fill="none" stroke="rgb(0,0,0)" class="dcg-svg-minor-gridline" paint-order="fill stroke markers" d=" M 297.5 0 L 297.5 400" stroke-opacity="0.2" stroke-miterlimit="10" stroke-dasharray=""/><path fill="none" stroke="rgb(0,0,0)" class="dcg-svg-minor-gridline" paint-order="fill stroke markers" d=" M 324.5 0 L 324.5 400" stroke-opacity="0.2" stroke-miterlimit="10" stroke-dasharray=""/><path fill="none" stroke="rgb(0,0,0)" class="dcg-svg-minor-gridline" paint-order="fill stroke markers" d=" M 352.5 0 L 352.5 400" stroke-opacity="0.2" stroke-miterlimit="10" stroke-dasharray=""/><path fill="none" stroke="rgb(0,0,0)" class="dcg-svg-minor-gridline" paint-order="fill stroke markers" d=" M 380.5 0 L 380.5 400" stroke-opacity="0.2" stroke-miterlimit="10" stroke-dasharray=""/><path fill="none" stroke="rgb(0,0,0)" class="dcg-svg-minor-gridline" paint-order="fill stroke markers" d=" M 0 377.5 L 400 377.5" stroke-opacity="0.2" stroke-miterlimit="10" stroke-dasharray=""/><path fill="none" stroke="rgb(0,0,0)" class="dcg-svg-minor-gridline" paint-order="fill stroke markers" d=" M 0 349.5 L 400 349.5" stroke-opacity="0.2" stroke-miterlimit="10" stroke-dasharray=""/><path fill="none" stroke="rgb(0,0,0)" class="dcg-svg-minor-gridline" paint-order="fill stroke markers" d=" M 0 321.5 L 400 321.5" stroke-opacity="0.2" stroke-miterlimit="10" stroke-dasharray=""/><path fill="none" stroke="rgb(0,0,0)" class="dcg-svg-minor-gridline" paint-order="fill stroke markers" d=" M 0 293.5 L 400 293.5" stroke-opacity="0.2" stroke-miterlimit="10" stroke-dasharray=""/><path fill="none" stroke="rgb(0,0,0)" class="dcg-svg-minor-gridline" paint-order="fill stroke markers" d=" M 0 266.5 L 400 266.5" stroke-opacity="0.2" stroke-miterlimit="10" stroke-dasharray=""/><path fill="none" stroke="rgb(0,0,0)" class="dcg-svg-minor-gridline" paint-order="fill stroke markers" d=" M 0 238.5 L 400 238.5" stroke-opacity="0.2" stroke-miterlimit="10" stroke-dasharray=""/><path fill="none" stroke="rgb(0,0,0)" class="dcg-svg-minor-gridline" paint-order="fill stroke markers" d=" M 0 210.5 L 400 210.5" stroke-opacity="0.2" stroke-miterlimit="10" stroke-dasharray=""/><path fill="none" stroke="rgb(0,0,0)" class="dcg-svg-minor-gridline" paint-order="fill stroke markers" d=" M 0 182.5 L 400 182.5" stroke-opacity="0.2" stroke-miterlimit="10" stroke-dasharray=""/><path fill="none" stroke="rgb(0,0,0)" class="dcg-svg-minor-gridline" paint-order="fill stroke markers" d=" M 0 127.5 L 400 127.5" stroke-opacity="0.2" stroke-miterlimit="10" stroke-dasharray=""/><path fill="none" stroke="rgb(0,0,0)" class="dcg-svg-minor-gridline" paint-order="fill stroke markers" d=" M 0 99.5 L 400 99.5" stroke-opacity="0.2" stroke-miterlimit="10" stroke-dasharray=""/><path fill="none" stroke="rgb(0,0,0)" class="dcg-svg-minor-gridline" paint-order="fill stroke markers" d=" M 0 71.5 L 400 71.5" stroke-opacity="0.2" stroke-miterlimit="10" stroke-dasharray=""/><path fill="none" stroke="rgb(0,0,0)" class="dcg-svg-minor-gridline" paint-order="fill stroke markers" d=" M 0 44.5 L 400 44.5" stroke-opacity="0.2" stroke-miterlimit="10" stroke-dasharray=""/><path fill="none" stroke="rgb(0,0,0)" class="dcg-svg-minor-gridline" paint-order="fill stroke markers" d=" M 0 16.5 L 400 16.5" stroke-opacity="0.2" stroke-miterlimit="10" stroke-dasharray=""/><path fill="none" stroke="rgb(0,0,0)" class="dcg-svg-major-gridline" paint-order="fill stroke markers" d=" M 19.5 0 L 19.5 400" stroke-opacity="0.2500000000000001" stroke-miterlimit="10" stroke-dasharray=""/><path fill="none" stroke="rgb(0,0,0)" class="dcg-svg-major-gridline" paint-order="fill stroke markers" d=" M 297.5 0 L 297.5 400" stroke-opacity="0.2500000000000001" stroke-miterlimit="10" stroke-dasharray=""/><path fill="none" stroke="rgb(0,0,0)" class="dcg-svg-major-gridline" paint-order="fill stroke markers" d=" M 0 293.5 L 400 293.5" stroke-opacity="0.2500000000000001" stroke-miterlimit="10" stroke-dasharray=""/><path fill="none" stroke="rgb(0,0,0)" class="dcg-svg-major-gridline" paint-order="fill stroke markers" d=" M 0 16.5 L 400 16.5" stroke-opacity="0.2500000000000001" stroke-miterlimit="10" stroke-dasharray=""/></g></g><g id="axis-853d9d88"><g id="yaxis-853d9d88"><title>Y axis</title><path fill="none" stroke="rgb(0,0,0)" class="dcg-svg-axis-line" paint-order="fill stroke markers" d=" M 159 0 L 159 400" stroke-opacity="0.9" stroke-miterlimit="10" stroke-width="1.5" stroke-dasharray=""/></g><g id="xaxis-853d9d88"><title>X axis</title><path fill="none" stroke="rgb(0,0,0)" class="dcg-svg-axis-line" paint-order="fill stroke markers" d=" M 0 156 L 400 156" stroke-opacity="0.9" stroke-miterlimit="10" stroke-width="1.5" stroke-dasharray=""/></g><g><g class="dcg-svg-axis-value"><text fill="none" stroke="#ffffff" font-family="Arial" font-size="14px" font-style="normal" font-weight="normal" text-decoration="normal" x="149.87140119824517" y="171.43766412143475" text-anchor="middle" stroke-miterlimit="2" stroke-width="3" stroke-dasharray="">0</text><text fill="#000000" stroke="none" font-family="Arial" font-size="14px" font-style="normal" font-weight="normal" text-decoration="normal" x="149.87140119824517" y="171.43766412143475" text-anchor="middle">0</text></g><g class="dcg-svg-axis-value"><text fill="none" stroke="#ffffff" font-family="Arial" font-size="14px" font-style="normal" font-weight="normal" text-decoration="normal" x="17.57627914964752" y="171.43766412143475" text-anchor="middle" stroke-miterlimit="2" stroke-width="3" stroke-dasharray="">-100</text><text fill="#000000" stroke="none" font-family="Arial" font-size="14px" font-style="normal" font-weight="normal" text-decoration="normal" x="17.57627914964752" y="171.43766412143475" text-anchor="middle">-100</text></g><g class="dcg-svg-axis-value"><text fill="none" stroke="#ffffff" font-family="Arial" font-size="14px" font-style="normal" font-weight="normal" text-decoration="normal" x="297.61652329452653" y="171.43766412143475" text-anchor="middle" stroke-miterlimit="2" stroke-width="3" stroke-dasharray="">100</text><text fill="#000000" stroke="none" font-family="Arial" font-size="14px" font-style="normal" font-weight="normal" text-decoration="normal" x="297.61652329452653" y="171.43766412143475" text-anchor="middle">100</text></g><g class="dcg-svg-axis-value"><text fill="none" stroke="#ffffff" font-family="Arial" font-size="14px" font-style="normal" font-weight="normal" text-decoration="normal" x="139.7547346428405" y="298.291119566944" text-anchor="middle" stroke-miterlimit="2" stroke-width="3" stroke-dasharray="">-100</text><text fill="#000000" stroke="none" font-family="Arial" font-size="14px" font-style="normal" font-weight="normal" text-decoration="normal" x="139.7547346428405" y="298.291119566944" text-anchor="middle">-100</text></g><g class="dcg-svg-axis-value"><text fill="none" stroke="#ffffff" font-family="Arial" font-size="14px" font-style="normal" font-weight="normal" text-decoration="normal" x="142.0880676582824" y="20.58420867592549" text-anchor="middle" stroke-miterlimit="2" stroke-width="3" stroke-dasharray="">100</text><text fill="#000000" stroke="none" font-family="Arial" font-size="14px" font-style="normal" font-weight="normal" text-decoration="normal" x="142.0880676582824" y="20.58420867592549" text-anchor="middle">100</text></g></g></g></g><g id="expressions-853d9d88"><g id="sketch-853d9d88"><title>Expression 2</title><path fill="none" stroke="#388c46" class="dcg-svg-point" paint-order="fill stroke markers" d=" M 160.94013695792745 150.86406045806947 L 160.94013695792745 151.06406045806946 L 161.14013695792744 151.06406045806946 L 161.14013695792744 150.86406045806947" stroke-linecap="round" stroke-linejoin="round" stroke-miterlimit="10" stroke-width="7.5" stroke-opacity="0.9" stroke-dasharray=""/></g><g id="sketch-853d9d88"><title>Expression 4</title><path fill="#fa7e19" stroke="none" paint-order="stroke fill markers" d="" fill-opacity="0.4"/><g><path fill="none" stroke="#fa7e19" class="dcg-svg-curve" paint-order="fill stroke markers" d=" M 159.65160240347237 155.12966412143476 L 159.65160240347237 155.12966412143476 L 159.76400345735885 154.55743041243974 L 159.6738725278529 153.96337737551272 L 159.3760324049467 153.3778866407461 L 158.8498051782749 152.8508025826665 L 158.02856209038708 152.44483566768878 L 157.15220465159052 152.31582932966379 L 156.2120679286404 152.4446785398464 L 155.28477595724058 152.84332671423394 L 154.4054381388657 153.5396688512249 L 153.72584003476038 154.43319271795747 L 153.27277510965456 155.4354887007812 L 153.03914804086506 156.461365133004 L 152.9948482633063 157.51681157385386 L 153.14614216704916 158.6400202318425 L 153.48258230106913 159.71502324892495 L 154.02349426216193 160.78893588653864 L 154.8468471375797 161.90338775490258 L 155.92573843743943 162.92608206738245 L 157.36184842365296 163.85958705500212 L 158.9495413780807 164.5204422976636 L 160.61567637637813 164.90179069126276 L 162.29201022017875 165.01618965558382 L 164.0705747119776 164.86897725820916 L 165.75959045696533 164.47902251313633 L 167.47080998245437 163.8250079889138 L 169.16683842056628 162.89135742048921 L 170.80626565720206 161.66720904253611 L 172.34416479954422 160.14722039220305 L 173.61396938536205 158.50935713218442 L 174.62036348478728 156.83144864351777 L 175.4685656193206 154.96836313968313 L 176.06698879972177 153.16591394418273 L 176.4985910964996 151.23651909668033 L 176.7441507328546 149.19305927393165 L 176.78510362544006 147.05088299517192 L 176.63921160138065 145.1094607774813 L 176.3121094577784 143.1195837964646 L 175.79362903832248 141.09619253758967 L 175.07463774344066 139.05562727970892 L 174.14719876452995 137.01557841508418 L 173.00473189413196 134.99502061668124 L 171.64217346127808 133.014130286809 L 170.05613384363414 131.09418583513178 L 167.9679521866945 129.00319050883155 L 165.58674552680642 127.05547938659794 L 162.91699774487887 125.28677538284603 L 159.9670834240599 123.73361063162503 L 157.1657973687878 122.58045678417614 L 154.17057107721573 121.64541687748357 L 150.99507600956093 120.95306421113656 L 147.65565321685523 120.52750992790499 L 144.677186651345 120.39285507738254 L 141.60583429254035 120.48558066641806 L 138.4566683337385 120.81918736060459 L 135.2462256878587 121.40638000209589 L 131.99248677760852 122.25893193130815 L 128.71484321095585 123.387547199067 L 125.43405387058996 124.80172147323151 L 122.1721889953963 126.5096025026516 L 118.95256188724181 128.51785105794 L 115.79964793756419 130.83150332244116 L 112.73899073532814 133.4538357574275 L 109.7970950907717 136.3862335123954 L 107.45594245687411 139.06636050561684 L 105.2324477399073 141.95991269487672 L 103.14310112605504 145.06431590591126 L 101.20461328654852 148.37587445649783 L 99.43384836584409 151.88973070502806 L 97.84775279734303 155.59982796439738 L 96.46328006552292 159.49887712853717 L 95.51221913589059 162.74845872202175 L 94.70957967873586 166.10855178254303 L 94.06384588634194 169.5736524837063 L 93.58338124510327 173.1377176455002 L 93.27639860512747 176.79416066491638 L 93.15092947229515 180.53584890278543 L 93.21479258260929 184.35510259435353 L 93.47556182326267 188.24369534934195 L 93.94053356944615 192.19285630518416 L 94.61669351049498 196.19327399480485 L 95.51068304351595 200.23510198770487 L 96.6287653171319 204.30796636022467 L 97.9767910124167 208.40097504769352 L 99.56016395244936 212.50272912770643 L 101.38380663617431 216.60133608002332 L 103.45212579641002 220.68442506455182 L 105.768978085867 224.73916425454038 L 108.33763599891438 228.7522802574988 L 111.1607541405481 232.71007965145614 L 114.24033595754963 236.5984726589848 L 117.57770105015629 240.40299897595122 L 121.17345318568393 244.108855766213 L 125.02744913842868 247.70092782747594 L 129.1387684828015 251.1638199272518 L 133.50568446901212 254.48189130133133 L 138.12563611268496 257.63929230041845 L 142.99520163155697 260.62000316356796 L 148.11007336384077 263.4078748898372 L 153.46503430392917 265.9866721721254 L 159.05393639185635 268.3401183495381 L 164.86968069328083 270.4519423267917 L 170.90419960672267 272.305927401189 L 177.14844123433417 273.88596192955947 L 183.59235605161757 275.1760917592886 L 190.22488601018432 276.1605743391831 L 197.03395620588242 276.8239344174418 L 202.24877302052664 277.1015898567299 L 207.54964354958759 277.18383064867965 L 212.9303393347257 277.06453904298326 L 218.38430785728352 276.73774698854356 L 223.90467357554056 276.1976506920504 L 229.48423953373788 275.4386253474863 L 235.1154895576818 274.45524001716944 L 240.79059105120564 273.24227264409177 L 246.5013984072041 271.7947251744744 L 252.23945704634355 270.10783876863 L 257.99600809590686 268.17710907740593 L 263.76199372053935 265.9983015606766 L 269.5280631159351 263.5674668235613 L 275.28457917573013 260.8809559452718 L 281.0216258410607 257.9354357747376 L 286.729016141389 254.72790416642022 L 292.3963009343105 251.25570512901643 L 298.0127783511217 247.51654385905738 L 303.5675039539561 243.50850163074912 L 309.049301609282 239.23005051276309 L 314.4467750815112 234.68006788207424 L 319.74832034936804 229.8578507043762 L 324.94213864655137 224.76312955005233 L 330.01625022705196 219.3960823141802 L 334.95850885428945 213.75734760857435 L 339.75661701199687 207.84803779344196 L 344.39814183351103 201.66975161583676 L 348.87053174482384 195.2245864217489 L 353.1611338154134 188.51514990836642 L 357.2572118095087 181.54457138278943 L 361.1459649290448 174.31651249327064 L 364.81454723814215 166.83517739889916 L 368.25008775749313 159.10532234354145 L 369.3412552268194 156.4743800445441" stroke-linecap="round" stroke-linejoin="round" stroke-miterlimit="10" stroke-width="2.5" stroke-opacity="0.7" stroke-dasharray=""/></g></g></g><g id="labels-853d9d88"/></g></svg>